{
	"asset":{
		"generator":"Khronos glTF Blender I/O v3.5.30",
		"version":"2.0"
	},
	"scene":0,
	"scenes":[
		{
			"extras":{
				"scatter5":{
					"emitter":{}
				},
				"uuid":"1c5fd0e5-6f36-4f7b-b3d6-dbaa9d4a44e7",
				"assets reported":{}
			},
			"name":"Scene",
			"nodes":[
				0
			]
		}
	],
	"nodes":[
		{
			"extras":{
				"scatter5":{
					"estimated_square_area":141.62155151367188
				},
				"sparkar_optimization":{
					"InvertedReducePercentage":0.0
				},
				"spark_blender_addon":1
			},
			"mesh":0,
			"name":"LOW_Material_0.001",
			"rotation":[
				0.08325012773275375,
				0.8673476576805115,
				0.4759143888950348,
				0.11951149255037308
			],
			"scale":[
				0.8576189875602722,
				0.578210711479187,
				0.6411263942718506
			],
			"translation":[
				0.34692710638046265,
				2.311298131942749,
				0.9550192356109619
			]
		}
	],
	"materials":[
		{
			"doubleSided":true,
			"name":"Material.002",
			"pbrMetallicRoughness":{}
		}
	],
	"meshes":[
		{
			"name":"LOW_Material_0.001",
			"primitives":[
				{
					"attributes":{
						"POSITION":0,
						"TEXCOORD_0":1,
						"TEXCOORD_1":2,
						"TEXCOORD_2":3,
						"NORMAL":4
					},
					"indices":5,
					"material":0
				}
			]
		}
	],
	"accessors":[
		{
			"bufferView":0,
			"componentType":5126,
			"count":4308,
			"max":[
				2.783010482788086,
				5.0187225341796875,
				6.933600902557373
			],
			"min":[
				-1.8185629844665527,
				-6.046054363250732,
				-5.197668075561523
			],
			"type":"VEC3"
		},
		{
			"bufferView":1,
			"componentType":5126,
			"count":4308,
			"type":"VEC2"
		},
		{
			"bufferView":2,
			"componentType":5126,
			"count":4308,
			"type":"VEC2"
		},
		{
			"bufferView":3,
			"componentType":5126,
			"count":4308,
			"type":"VEC2"
		},
		{
			"bufferView":4,
			"componentType":5126,
			"count":4308,
			"type":"VEC3"
		},
		{
			"bufferView":5,
			"componentType":5123,
			"count":4596,
			"type":"SCALAR"
		}
	],
	"bufferViews":[
		{
			"buffer":0,
			"byteLength":51696,
			"byteOffset":0,
			"target":34962
		},
		{
			"buffer":0,
			"byteLength":34464,
			"byteOffset":51696,
			"target":34962
		},
		{
			"buffer":0,
			"byteLength":34464,
			"byteOffset":86160,
			"target":34962
		},
		{
			"buffer":0,
			"byteLength":34464,
			"byteOffset":120624,
			"target":34962
		},
		{
			"buffer":0,
			"byteLength":51696,
			"byteOffset":155088,
			"target":34962
		},
		{
			"buffer":0,
			"byteLength":9192,
			"byteOffset":206784,
			"target":34963
		}
	],
	"buffers":[
		{
			"byteLength":215976,
			"uri":"data:application/octet-stream;base64,"
		}
	]
}
